<svg id="visual" viewBox="0 0 900 600" width="900" height="600" xmlns="http://www.w3.org/2000/svg" xmlns:xlink="http://www.w3.org/1999/xlink" version="1.1"><rect x="0" y="0" width="900" height="600" fill="#ffffff"></rect><defs><linearGradient id="grad1_0" x1="33.3%" y1="0%" x2="100%" y2="100%"><stop offset="20%" stop-color="#2696b4" stop-opacity="1"></stop><stop offset="80%" stop-color="#2696b4" stop-opacity="1"></stop></linearGradient></defs><defs><linearGradient id="grad1_1" x1="33.3%" y1="0%" x2="100%" y2="100%"><stop offset="20%" stop-color="#2696b4" stop-opacity="1"></stop><stop offset="80%" stop-color="#a0cad9" stop-opacity="1"></stop></linearGradient></defs><defs><linearGradient id="grad1_2" x1="33.3%" y1="0%" x2="100%" y2="100%"><stop offset="20%" stop-color="#ffffff" stop-opacity="1"></stop><stop offset="80%" stop-color="#a0cad9" stop-opacity="1"></stop></linearGradient></defs><defs><linearGradient id="grad2_0" x1="0%" y1="0%" x2="66.7%" y2="100%"><stop offset="20%" stop-color="#2696b4" stop-opacity="1"></stop><stop offset="80%" stop-color="#2696b4" stop-opacity="1"></stop></linearGradient></defs><defs><linearGradient id="grad2_1" x1="0%" y1="0%" x2="66.7%" y2="100%"><stop offset="20%" stop-color="#a0cad9" stop-opacity="1"></stop><stop offset="80%" stop-color="#2696b4" stop-opacity="1"></stop></linearGradient></defs><defs><linearGradient id="grad2_2" x1="0%" y1="0%" x2="66.7%" y2="100%"><stop offset="20%" stop-color="#a0cad9" stop-opacity="1"></stop><stop offset="80%" stop-color="#ffffff" stop-opacity="1"></stop></linearGradient></defs><g transform="translate(900, 0)"><path d="M0 432.7C-34.5 390.8 -69 348.9 -109.1 335.7C-149.2 322.5 -194.9 338 -240.4 330.9C-286 323.8 -331.4 294.2 -350 254.3C-368.7 214.4 -360.6 164.3 -370 120.2C-379.3 76.1 -406 38.1 -432.7 0L0 0Z" fill="#d0e4ec"></path><path d="M0 288.4C-23 260.5 -46 232.6 -72.7 223.8C-99.4 215 -129.9 225.3 -160.3 220.6C-190.6 215.9 -220.9 196.1 -233.4 169.5C-245.8 143 -240.4 109.5 -246.6 80.1C-252.9 50.7 -270.6 25.4 -288.4 0L0 0Z" fill="#6db0c6"></path><path d="M0 144.2C-11.5 130.3 -23 116.3 -36.4 111.9C-49.7 107.5 -65 112.7 -80.1 110.3C-95.3 107.9 -110.5 98.1 -116.7 84.8C-122.9 71.5 -120.2 54.8 -123.3 40.1C-126.4 25.4 -135.3 12.7 -144.2 0L0 0Z" fill="#2696b4"></path></g><g transform="translate(0, 600)"><path d="M0 -432.7C34.2 -399.9 68.4 -367.1 117.4 -361.4C166.4 -355.7 230.2 -377 254.3 -350C278.4 -323.1 262.9 -247.9 284 -206.3C305.1 -164.7 362.8 -156.7 393.7 -127.9C424.6 -99.1 428.6 -49.6 432.7 0L0 0Z" fill="#d0e4ec"></path><path d="M0 -288.4C22.8 -266.6 45.6 -244.8 78.3 -240.9C110.9 -237.1 153.5 -251.3 169.5 -233.4C185.6 -215.4 175.2 -165.3 189.3 -137.5C203.4 -109.8 241.9 -104.5 262.5 -85.3C283.1 -66.1 285.8 -33 288.4 0L0 0Z" fill="#6db0c6"></path><path d="M0 -144.2C11.4 -133.3 22.8 -122.4 39.1 -120.5C55.5 -118.6 76.7 -125.7 84.8 -116.7C92.8 -107.7 87.6 -82.6 94.7 -68.8C101.7 -54.9 120.9 -52.2 131.2 -42.6C141.5 -33 142.9 -16.5 144.2 0L0 0Z" fill="#2696b4"></path></g></svg>